<?xml version="1.0" encoding="UTF-8" standalone="no"?>
<svg width="18px" height="18px" viewBox="0 0 18 18" version="1.1" xmlns="http://www.w3.org/2000/svg" xmlns:xlink="http://www.w3.org/1999/xlink">
    <!-- Generator: Sketch 3.8.3 (29802) - http://www.bohemiancoding.com/sketch -->
    <title>Page 1</title>
    <desc>Created with Sketch.</desc>
    <defs></defs>
    <g id="Page-1" stroke="none" stroke-width="1" fill="none" fill-rule="evenodd">
        <g id="Fill-1" fill="#FFFFFF">
            <path d="M11.871,12.5108262 C11.2032581,12.5108262 10.6618065,11.6379738 10.6618065,10.5615148 C10.6618065,9.48476066 11.2032581,8.61220328 11.871,8.61220328 C12.5387419,8.61220328 13.0801935,9.48476066 13.0801935,10.5615148 C13.0801935,11.6379738 12.5387419,12.5108262 11.871,12.5108262 M9.06532258,12.1278098 C8.8353871,12.1278098 8.649,12.4819082 8.649,12.0121377 C8.649,11.5420721 8.8353871,11.1611213 9.06532258,11.1611213 C9.29554839,11.1611213 9.48193548,11.5420721 9.48193548,12.0121377 C9.48193548,12.4819082 9.29554839,12.1278098 9.06532258,12.1278098 M6.37751613,12.5108262 C5.70977419,12.5108262 5.16832258,11.6379738 5.16832258,10.5615148 C5.16832258,9.48476066 5.70977419,8.61220328 6.37751613,8.61220328 C7.04554839,8.61220328 7.587,9.48476066 7.587,10.5615148 C7.587,11.6379738 7.04554839,12.5108262 6.37751613,12.5108262 M17.8092581,4.55777705 C17.8589032,3.90121967 17.8319032,2.0926623 16.2708387,0.810236066 C14.8807742,-0.331731148 13.7226774,-0.00478032787 12.8769677,0.233940984 C12.8206452,0.24987541 12.7657742,0.265219672 12.7120645,0.27997377 C12.6113226,0.307416393 12.5326452,0.388268852 12.5068065,0.490957377 C12.4809677,0.59335082 12.5114516,0.702531148 12.5866452,0.776006557 C12.6092903,0.798137705 12.635129,0.82292459 12.663871,0.850367213 C13.0920968,1.26023607 14.1944516,2.31574426 14.1720968,3.93633443 C14.121871,3.91744918 14.0925484,3.90446557 14.0922581,3.90446557 C14.0730968,3.89561311 14.0527742,3.89000656 14.031871,3.88794098 C13.9087742,3.87407213 13.788871,3.91095738 13.6936452,3.99121967 C13.6477742,4.03017049 13.6106129,4.07649836 13.5833226,4.12843279 C13.2967742,4.11308852 12.2664194,3.95167869 11.4770323,2.46830164 C11.4180968,2.35735082 11.3069032,2.29125246 11.1794516,2.29125246 L11.1762581,2.29125246 C11.0400968,2.29243279 10.9120645,2.37151475 10.8499355,2.49279344 C10.6467097,2.89026885 10.3755484,4.06646557 10.8342581,5.16387541 C11.3879032,6.48908852 12.2521935,7.18695738 13.4761935,7.29525246 L14.7733548,8.01259672 C14.7547742,8.0506623 14.7376452,8.08371148 14.7274839,8.09846557 C14.7123871,8.11292459 14.6917742,8.12944918 14.6702903,8.14685902 C14.5855161,8.21531803 14.4574839,8.31859672 14.4522581,8.49210492 C14.4481935,8.62046557 14.5140968,8.74499016 14.6534516,8.87246557 C14.7791613,8.98725246 14.8337419,9.49184262 14.8665484,9.79341639 C14.894129,10.0483672 14.9179355,10.2684984 14.9722258,10.4089574 C15.0224516,10.5384984 15.1194194,10.659482 15.2375806,10.7456459 C15.1899677,10.8781377 15.1072258,11.0351213 14.9818065,11.0247934 C14.9478387,11.0218426 14.9156129,11.0292197 14.886,11.0422033 C14.8912258,10.987023 14.8981935,10.9324328 14.9005161,10.8763672 C14.9025484,10.8326951 14.9034194,10.792859 14.9034194,10.7553836 C14.9034194,8.93295738 13.707871,8.12974426 12.4423548,7.27931803 L12.3860323,7.24154754 C12.2269355,7.13472787 12.0785806,7.02997377 11.934871,6.92876066 C11.0853871,6.33003934 10.4147419,5.85731803 8.94716129,5.85731803 C7.47958065,5.85731803 6.80864516,6.33003934 5.95945161,6.92876066 C5.81574194,7.02997377 5.66709677,7.13472787 5.50829032,7.24154754 L5.45196774,7.27931803 C4.18616129,8.12974426 2.9906129,8.93295738 2.9906129,10.7553836 C2.9906129,10.7925639 2.99177419,10.8309246 2.99351613,10.8745967 C2.99583871,10.9309574 3.00309677,10.9858426 3.00832258,11.041023 C2.97929032,11.0289246 2.94822581,11.0218426 2.91570968,11.0247934 C2.79116129,11.0351213 2.70754839,10.8784328 2.65964516,10.7456459 C2.77780645,10.6591869 2.87477419,10.5384984 2.925,10.4089574 C2.97958065,10.2684984 3.0033871,10.0483672 3.03096774,9.79341639 C3.06348387,9.49184262 3.11806452,8.98725246 3.24377419,8.87246557 C3.38312903,8.74499016 3.44903226,8.62046557 3.44525806,8.49210492 C3.43974194,8.31859672 3.31170968,8.21531803 3.22693548,8.14685902 C3.20545161,8.12944918 3.18483871,8.11292459 3.16974194,8.09846557 C3.15958065,8.08371148 3.14245161,8.0506623 3.12387097,8.01259672 L4.42132258,7.29525246 C5.64503226,7.18695738 6.5096129,6.48908852 7.06325806,5.16387541 C7.52167742,4.06646557 7.25051613,2.89026885 7.04729032,2.49279344 L7.04729032,2.49279344 C6.98516129,2.37151475 6.85712903,2.29243279 6.72096774,2.29125246 L6.71777419,2.29125246 C6.59032258,2.29125246 6.47941935,2.35735082 6.42019355,2.46830164 C5.63109677,3.95167869 4.60074194,4.11308852 4.31419355,4.12843279 C4.28690323,4.07649836 4.24974194,4.03017049 4.20387097,3.99151475 C4.10864516,3.91095738 3.98816129,3.87436721 3.86535484,3.88794098 C3.84474194,3.89000656 3.82441935,3.89561311 3.80525806,3.90417049 C3.80467742,3.90446557 3.77564516,3.91744918 3.72512903,3.93633443 C3.70277419,2.31574426 4.80512903,1.26023607 5.23335484,0.850367213 C5.26209677,0.82292459 5.28793548,0.798137705 5.31058065,0.776006557 C5.38577419,0.702531148 5.41654839,0.59335082 5.39041935,0.490957377 C5.36458065,0.388268852 5.28590323,0.307416393 5.18516129,0.27997377 C5.13145161,0.265219672 5.07658065,0.24987541 5.02025806,0.233940984 C4.17483871,-0.00478032787 3.01645161,-0.331731148 1.62667742,0.810236066 C0.0656129032,2.0926623 0.0386129032,3.90121967 0.0879677419,4.55777705 C0.0197419355,4.65308852 -0.0119032258,4.7728918 0.00406451613,4.89151475 C0.303387097,7.13649836 0.982741935,7.82994098 1.36132258,8.04358033 C1.36422581,8.04505574 1.36712903,8.04682623 1.37003226,8.04830164 C1.33635484,8.19200656 1.10119355,9.28174426 1.47948387,10.1888262 C1.59677419,10.4694492 1.74396774,10.6671541 1.91874194,10.7784 C1.94254839,11.0383672 2.0276129,11.3906951 2.26945161,11.7636787 C2.48051613,12.088859 2.74877419,12.279482 2.98451613,12.391023 L2.83035484,12.4603672 C2.75051613,12.4963672 2.68896774,12.5618754 2.65732258,12.6450885 C2.65209677,12.6589574 2.64803226,12.6731213 2.64454839,12.6875803 C2.637,12.7073508 2.63119355,12.7280066 2.62887097,12.7501377 L2.6216129,12.9463672 L2.60303226,12.9546295 C2.49474194,13.003023 2.41170968,13.0918426 2.36874194,13.2045639 C2.35103226,13.2508918 2.34145161,13.2989902 2.33912903,13.3470885 C2.33767742,13.3506295 2.33593548,13.3538754 2.33448387,13.3574164 L2.09264516,14.1632852 C1.95909677,14.500859 1.7306129,14.7233508 1.59416129,14.8564328 C1.49051613,14.9573508 1.43332258,15.0128262 1.44870968,15.0933836 C1.45683871,15.1349902 1.48529032,15.1686295 1.52709677,15.1854492 L1.55554839,15.1969574 L1.58545161,15.1904656 C1.61651613,15.1836787 2.33448387,15.0225639 2.5136129,14.6147607 L2.39196774,15.2972852 C2.27090323,15.7502361 2.01222581,16.0692197 1.85719355,16.2598426 C1.74367742,16.4000066 1.68677419,16.4702361 1.71348387,16.5549246 C1.72683871,16.5971213 1.76051613,16.6284 1.8063871,16.6410885 L1.836,16.6490557 L1.86503226,16.639023 C1.90335484,16.6257443 2.80567742,16.307941 2.94503226,15.7620393 L3.24406452,14.7322033 C3.25335484,14.7286623 3.26293548,14.7251213 3.27222581,14.7209902 C3.24058065,14.8345967 3.24145161,14.9558754 3.27570968,15.069777 C3.27483871,15.0771541 3.27367742,15.0845311 3.2733871,15.0922033 L3.27309677,15.0966295 L3.30822581,16.333318 C3.27745161,16.8809902 3.05767742,17.3079738 2.92616129,17.5635148 C2.83296774,17.7449902 2.78622581,17.8358754 2.83209677,17.9179082 C2.84516129,17.9412197 2.87709677,17.9807607 2.94474194,17.9845967 L2.97551613,17.9863672 L3.00193548,17.9704328 C3.042,17.9462361 3.9843871,17.3702361 4.01341935,16.7251869 L4.11270968,15.4498426 C4.167,15.4241705 4.21867742,15.389941 4.26512903,15.346859 L6.10229032,13.6395148 C6.31567742,13.6271213 6.51454839,13.6005639 6.70180645,13.564859 C6.72851613,13.6256459 6.74854839,13.6929246 6.76974194,13.7658098 C6.83796774,14.0004 6.92303226,14.2925311 7.32774194,14.3763344 C7.47348387,14.4067279 8.14209677,14.4211869 8.84032258,14.4211869 C9.62419355,14.4211869 10.4458065,14.4028918 10.6060645,14.3680721 C11.0023548,14.2819082 11.0795806,13.9909574 11.1414194,13.7572525 C11.1602903,13.6861377 11.1782903,13.6200393 11.2026774,13.5607279 C11.3693226,13.5949574 11.5467097,13.6212197 11.7397742,13.6353836 L13.5815806,15.346859 C13.6280323,15.389941 13.6794194,15.4241705 13.734,15.4498426 L13.8332903,16.7251869 C13.8623226,17.3702361 14.8047097,17.9462361 14.8447742,17.9704328 L14.8711935,17.9863672 L14.9016774,17.9845967 C14.9693226,17.9807607 15.0015484,17.9412197 15.0146129,17.9179082 C15.0604839,17.8358754 15.0137419,17.7449902 14.9202581,17.5635148 C14.7887419,17.3079738 14.5689677,16.8809902 14.5381935,16.333318 L14.5733226,15.1007607 L14.5736129,15.0966295 L14.5733226,15.0924984 C14.5727419,15.0848262 14.571871,15.0774492 14.571,15.069777 C14.6052581,14.9561705 14.606129,14.8348918 14.5744839,14.7209902 C14.5837742,14.7251213 14.5930645,14.7286623 14.6026452,14.7322033 L14.9013871,15.7620393 C15.0410323,16.307941 15.9430645,16.6257443 15.9813871,16.639023 L16.0104194,16.6490557 L16.0400323,16.6410885 C16.0859032,16.6284 16.119871,16.5971213 16.1332258,16.5549246 C16.1599355,16.4702361 16.1027419,16.4000066 15.9892258,16.2598426 C15.8344839,16.0692197 15.5758065,15.7502361 15.4547419,15.2972852 L15.3333871,14.6156459 C15.5130968,15.022859 16.2301935,15.1836787 16.2612581,15.1904656 L16.2911613,15.1969574 L16.3196129,15.1854492 C16.361129,15.1686295 16.389871,15.1349902 16.3977097,15.0933836 C16.4130968,15.0128262 16.3561935,14.9573508 16.2525484,14.8564328 C16.1158065,14.7233508 15.8876129,14.5005639 15.7537742,14.1632852 L15.5148387,13.3653836 L15.5119355,13.3574164 C15.5107742,13.3538754 15.5087419,13.3506295 15.5072903,13.3470885 C15.5049677,13.2989902 15.4956774,13.2508918 15.4779677,13.2045639 C15.435,13.0918426 15.3516774,13.003023 15.2436774,12.9546295 L15.2253871,12.9463672 L15.2184194,12.7584 L15.2178387,12.7501377 C15.2152258,12.7283016 15.2097097,12.7076459 15.2021613,12.6878754 C15.1792258,12.5902033 15.1136129,12.5040393 15.0163548,12.4603672 L14.8880323,12.4028262 C15.1295806,12.2927607 15.4094516,12.1003672 15.6277742,11.7636787 C15.8699032,11.3906951 15.9546774,11.0383672 15.9787742,10.7784 C16.1535484,10.6671541 16.3007419,10.4694492 16.4177419,10.1888262 C16.7960323,9.28174426 16.560871,8.19171148 16.5271935,8.04830164 C16.5300968,8.04682623 16.533,8.04505574 16.5359032,8.04358033 C16.9144839,7.82994098 17.594129,7.13649836 17.8931613,4.89151475 C17.909129,4.7728918 17.8777742,4.65279344 17.8092581,4.55777705"></path>
        </g>
    </g>
</svg>